# xmcd
#
# Track frame offsets:
#	150
#	3165
#	12500
#	26410
#	43680
#	59465
#	74900
#	92185
#	111725
#	125435
#	147245
#	163450
#	233745
#	244085
#	268875
#	293660
#	308700
#
# Disc length: 4407 seconds
#
# Revision: 1
# Processed by: cddbd v1.5.1PL2 Copyright (c) Steve Scherf et al.
# Submitted via: EasyCDDAExtractor 8.0.2.1
#
DISCID=01113511
DTITLE=Alice Cooper - SAP Arena Mannheim 17-02-06
DYEAR=2006
DGENRE=Hard Rock
TTITLE0=Intro
TTITLE1=Department Of Youth
TTITLE2=No More Mr Nice Guy
TTITLE3=Dirty Diamonds
TTITLE4=Billion Dollar Babies
TTITLE5=Be My Lover
TTITLE6=Woman Of Mass Distraction
TTITLE7=Eighteen
TTITLE8=Go To Hell
TTITLE9=Black Widow Jam
TTITLE10=Feed My Frankenstein
TTITLE11=Welcome To My Nightmare - The Piece - The Awekening - Steven - Only W
TTITLE11=omen Bleed - Steven - Ballad Of Dwight Fry - Killer
TTITLE12=I Love The Dead
TTITLE13=Schools Out
TTITLE14=Poison
TTITLE15=I Wish I Were Born In Beverly Hills
TTITLE16=Under My Wheels
EXTD=
EXTT0=
EXTT1=
EXTT2=
EXTT3=
EXTT4=
EXTT5=
EXTT6=
EXTT7=
EXTT8=
EXTT9=
EXTT10=
EXTT11=
EXTT12=
EXTT13=
EXTT14=
EXTT15=
EXTT16=
PLAYORDER=
